%TF.GenerationSoftware,KiCad,Pcbnew,9.0.0-rc1*%
%TF.CreationDate,2026-07-30T10:10:10+05:30*%
%TF.ProjectId,VLO,564c4f2e-6b69-4636-9164-5f7063625858,rev?*%
%TF.SameCoordinates,Original*%
%TF.FileFunction,Copper,L2,Bot*%
%TF.FilePolarity,Positive*%
%FSLAX46Y46*%
G04 Gerber Fmt 4.6, Leading zero omitted, Abs format (unit mm)*
G04 Created by KiCad (PCBNEW 9.0.0-rc1) date 2026-07-30 10:10:10*
%MOMM*%
%LPD*%
G01*
G04 APERTURE LIST*
%TA.AperFunction,ComponentPad*%
%ADD10R,3.200000X3.200000*%
%TD*%
%TA.AperFunction,ComponentPad*%
%ADD11O,3.200000X3.200000*%
%TD*%
%TA.AperFunction,ComponentPad*%
%ADD12R,1.700000X1.700000*%
%TD*%
%TA.AperFunction,ComponentPad*%
%ADD13O,1.700000X1.700000*%
%TD*%
%TA.AperFunction,ComponentPad*%
%ADD14C,5.400000*%
%TD*%
%TA.AperFunction,ConnectorPad*%
%ADD15C,10.000000*%
%TD*%
%TA.AperFunction,ComponentPad*%
%ADD16C,2.362200*%
%TD*%
%TA.AperFunction,ComponentPad*%
%ADD17R,1.308000X1.308000*%
%TD*%
%TA.AperFunction,ComponentPad*%
%ADD18C,1.308000*%
%TD*%
%TA.AperFunction,ViaPad*%
%ADD19C,0.500000*%
%TD*%
%TA.AperFunction,ViaPad*%
%ADD20C,0.600000*%
%TD*%
%TA.AperFunction,ViaPad*%
%ADD21C,0.300000*%
%TD*%
%TA.AperFunction,Conductor*%
%ADD22C,0.600000*%
%TD*%
G04 APERTURE END LIST*
D10*
%TO.P,D1,1,K*%
%TO.N,/BAT*%
X152380000Y-107000000D03*
D11*
%TO.P,D1,2,A*%
%TO.N,Net-(D1-A)*%
X167620000Y-107000000D03*
%TD*%
D12*
%TO.P,J3,1,Pin_1*%
%TO.N,/BAT*%
X180000000Y-90200000D03*
D13*
%TO.P,J3,2,Pin_2*%
%TO.N,/5v*%
X180000000Y-92740000D03*
%TO.P,J3,3,Pin_3*%
%TO.N,/3.3v*%
X180000000Y-95280000D03*
%TO.P,J3,4,Pin_4*%
%TO.N,GND*%
X180000000Y-97820000D03*
%TD*%
D14*
%TO.P,REF\u002A\u002A,1*%
%TO.N,N/C*%
X186500000Y-107500000D03*
D15*
X186500000Y-107500000D03*
%TD*%
D14*
%TO.P,REF\u002A\u002A,1*%
%TO.N,N/C*%
X133000000Y-81000000D03*
D15*
X133000000Y-81000000D03*
%TD*%
D16*
%TO.P,J2,PIN*%
%TO.N,unconnected-(J2-PadPIN)*%
X157891800Y-95177800D03*
%TO.P,J2,SLV*%
%TO.N,Net-(D1-A)*%
X154081800Y-90199400D03*
%TO.P,J2,S_S*%
%TO.N,Net-(J1-Pad1)*%
X150119400Y-94161800D03*
%TD*%
D14*
%TO.P,REF\u002A\u002A,1*%
%TO.N,N/C*%
X132500000Y-107500000D03*
D15*
X132500000Y-107500000D03*
%TD*%
D17*
%TO.P,J1,1,1*%
%TO.N,Net-(J1-Pad1)*%
X143550000Y-96000000D03*
D18*
%TO.P,J1,2,2*%
%TO.N,GND*%
X143550000Y-98000000D03*
%TD*%
D14*
%TO.P,REF\u002A\u002A,1*%
%TO.N,N/C*%
X186000000Y-81000000D03*
D15*
X186000000Y-81000000D03*
%TD*%
D19*
%TO.N,/BAT*%
X169000000Y-89000000D03*
X170000000Y-84500000D03*
D20*
X166500000Y-103000000D03*
D21*
X161500000Y-103000000D03*
D19*
%TO.N,/5v*%
X175000000Y-91500000D03*
X178000000Y-92500000D03*
%TO.N,/3.3v*%
X175000000Y-97500000D03*
%TD*%
D22*
%TO.N,/BAT*%
X169000000Y-84500000D02*
X170000000Y-84500000D01*
X169000000Y-89000000D02*
X169000000Y-84500000D01*
X166000000Y-103000000D02*
X166500000Y-103000000D01*
X161500000Y-103000000D02*
X166000000Y-103000000D01*
%TO.N,/5v*%
X178000000Y-92500000D02*
X176000000Y-92500000D01*
X176000000Y-92500000D02*
X175000000Y-91500000D01*
%TO.N,/3.3v*%
X177220000Y-95280000D02*
X180000000Y-95280000D01*
X175000000Y-97500000D02*
X177220000Y-95280000D01*
%TD*%
M02*
