%TF.GenerationSoftware,KiCad,Pcbnew,9.0.0-rc1*%
%TF.CreationDate,2026-07-30T10:10:09+05:30*%
%TF.ProjectId,VLO,564c4f2e-6b69-4636-9164-5f7063625858,rev?*%
%TF.SameCoordinates,Original*%
%TF.FileFunction,Copper,L1,Top*%
%TF.FilePolarity,Positive*%
%FSLAX46Y46*%
G04 Gerber Fmt 4.6, Leading zero omitted, Abs format (unit mm)*
G04 Created by KiCad (PCBNEW 9.0.0-rc1) date 2026-07-30 10:10:09*
%MOMM*%
%LPD*%
G01*
G04 APERTURE LIST*
G04 Aperture macros list*
%AMRoundRect*
0 Rectangle with rounded corners*
0 $1 Rounding radius*
0 $2 $3 $4 $5 $6 $7 $8 $9 X,Y pos of 4 corners*
0 Add a 4 corners polygon primitive as box body*
4,1,4,$2,$3,$4,$5,$6,$7,$8,$9,$2,$3,0*
0 Add four circle primitives for the rounded corners*
1,1,$1+$1,$2,$3*
1,1,$1+$1,$4,$5*
1,1,$1+$1,$6,$7*
1,1,$1+$1,$8,$9*
0 Add four rect primitives between the rounded corners*
20,1,$1+$1,$2,$3,$4,$5,0*
20,1,$1+$1,$4,$5,$6,$7,0*
20,1,$1+$1,$6,$7,$8,$9,0*
20,1,$1+$1,$8,$9,$2,$3,0*%
G04 Aperture macros list end*
%ADD10C,0.300000*%
%TA.AperFunction,NonConductor*%
%ADD11C,0.300000*%
%TD*%
%TA.AperFunction,SMDPad,CuDef*%
%ADD12R,1.470000X1.160000*%
%TD*%
%TA.AperFunction,SMDPad,CuDef*%
%ADD13R,0.970000X1.730000*%
%TD*%
%TA.AperFunction,ComponentPad*%
%ADD14R,3.200000X3.200000*%
%TD*%
%TA.AperFunction,ComponentPad*%
%ADD15O,3.200000X3.200000*%
%TD*%
%TA.AperFunction,ComponentPad*%
%ADD16R,1.700000X1.700000*%
%TD*%
%TA.AperFunction,ComponentPad*%
%ADD17O,1.700000X1.700000*%
%TD*%
%TA.AperFunction,SMDPad,CuDef*%
%ADD18R,1.200000X1.200000*%
%TD*%
%TA.AperFunction,ComponentPad*%
%ADD19C,5.400000*%
%TD*%
%TA.AperFunction,ConnectorPad*%
%ADD20C,10.000000*%
%TD*%
%TA.AperFunction,SMDPad,CuDef*%
%ADD21RoundRect,0.116250X-0.873750X-0.348750X0.873750X-0.348750X0.873750X0.348750X-0.873750X0.348750X0*%
%TD*%
%TA.AperFunction,SMDPad,CuDef*%
%ADD22RoundRect,0.247500X-0.742500X-1.367500X0.742500X-1.367500X0.742500X1.367500X-0.742500X1.367500X0*%
%TD*%
%TA.AperFunction,ComponentPad*%
%ADD23C,2.362200*%
%TD*%
%TA.AperFunction,ComponentPad*%
%ADD24R,1.308000X1.308000*%
%TD*%
%TA.AperFunction,ComponentPad*%
%ADD25C,1.308000*%
%TD*%
%TA.AperFunction,ViaPad*%
%ADD26C,0.500000*%
%TD*%
%TA.AperFunction,ViaPad*%
%ADD27C,0.600000*%
%TD*%
%TA.AperFunction,ViaPad*%
%ADD28C,0.300000*%
%TD*%
%TA.AperFunction,Conductor*%
%ADD29C,0.600000*%
%TD*%
%TA.AperFunction,Conductor*%
%ADD30C,0.200000*%
%TD*%
G04 APERTURE END LIST*
D10*
D11*
X143554510Y-93229400D02*
X144697368Y-93229400D01*
X144125939Y-93800828D02*
X144125939Y-92657971D01*
D12*
%TO.P,C3,1*%
%TO.N,/5v*%
X163000000Y-90375000D03*
%TO.P,C3,2*%
%TO.N,GND*%
X163000000Y-88625000D03*
%TD*%
D13*
%TO.P,R1,1*%
%TO.N,Net-(D2-Pad+)*%
X141520000Y-88000000D03*
%TO.P,R1,2*%
%TO.N,/BAT*%
X144480000Y-88000000D03*
%TD*%
D14*
%TO.P,D1,1,K*%
%TO.N,/BAT*%
X152380000Y-107000000D03*
D15*
%TO.P,D1,2,A*%
%TO.N,Net-(D1-A)*%
X167620000Y-107000000D03*
%TD*%
D12*
%TO.P,C1,1*%
%TO.N,GND*%
X176625000Y-102000000D03*
%TO.P,C1,2*%
%TO.N,/BAT*%
X176625000Y-103750000D03*
%TD*%
D16*
%TO.P,J3,1,Pin_1*%
%TO.N,/BAT*%
X180000000Y-90200000D03*
D17*
%TO.P,J3,2,Pin_2*%
%TO.N,/5v*%
X180000000Y-92740000D03*
%TO.P,J3,3,Pin_3*%
%TO.N,/3.3v*%
X180000000Y-95280000D03*
%TO.P,J3,4,Pin_4*%
%TO.N,GND*%
X180000000Y-97820000D03*
%TD*%
D12*
%TO.P,C4,1*%
%TO.N,/3.3v*%
X162500000Y-99750000D03*
%TO.P,C4,2*%
%TO.N,GND*%
X162500000Y-98000000D03*
%TD*%
D18*
%TO.P,D2,+*%
%TO.N,Net-(D2-Pad+)*%
X152000000Y-84500000D03*
%TO.P,D2,-*%
%TO.N,GND*%
X149900000Y-84500000D03*
%TD*%
D19*
%TO.P,REF\u002A\u002A,1*%
%TO.N,N/C*%
X186500000Y-107500000D03*
D20*
X186500000Y-107500000D03*
%TD*%
D21*
%TO.P,U2,1,GND*%
%TO.N,GND*%
X166485000Y-88200000D03*
%TO.P,U2,2,VOUT*%
%TO.N,/5v*%
X166485000Y-90500000D03*
%TO.P,U2,3,VIN*%
%TO.N,/BAT*%
X166485000Y-92800000D03*
D22*
%TO.P,U2,4,VOUT*%
%TO.N,/5v*%
X172515000Y-90500000D03*
%TD*%
D19*
%TO.P,REF\u002A\u002A,1*%
%TO.N,N/C*%
X133000000Y-81000000D03*
D20*
X133000000Y-81000000D03*
%TD*%
D12*
%TO.P,C2,1*%
%TO.N,GND*%
X176000000Y-88875000D03*
%TO.P,C2,2*%
%TO.N,/BAT*%
X176000000Y-87125000D03*
%TD*%
D21*
%TO.P,U1,1,GND*%
%TO.N,GND*%
X166485000Y-96200000D03*
%TO.P,U1,2,VOUT*%
%TO.N,/3.3v*%
X166485000Y-98500000D03*
%TO.P,U1,3,VIN*%
%TO.N,/BAT*%
X166485000Y-100800000D03*
D22*
%TO.P,U1,4,VOUT*%
%TO.N,/3.3v*%
X172515000Y-98500000D03*
%TD*%
D23*
%TO.P,J2,PIN*%
%TO.N,unconnected-(J2-PadPIN)*%
X157891800Y-95177800D03*
%TO.P,J2,SLV*%
%TO.N,Net-(D1-A)*%
X154081800Y-90199400D03*
%TO.P,J2,S_S*%
%TO.N,Net-(J1-Pad1)*%
X150119400Y-94161800D03*
%TD*%
D19*
%TO.P,REF\u002A\u002A,1*%
%TO.N,N/C*%
X132500000Y-107500000D03*
D20*
X132500000Y-107500000D03*
%TD*%
D24*
%TO.P,J1,1,1*%
%TO.N,Net-(J1-Pad1)*%
X143550000Y-96000000D03*
D25*
%TO.P,J1,2,2*%
%TO.N,GND*%
X143550000Y-98000000D03*
%TD*%
D19*
%TO.P,REF\u002A\u002A,1*%
%TO.N,N/C*%
X186000000Y-81000000D03*
D20*
X186000000Y-81000000D03*
%TD*%
D26*
%TO.N,/BAT*%
X169000000Y-89000000D03*
X170000000Y-84500000D03*
D27*
X166500000Y-103000000D03*
D28*
X161500000Y-103000000D03*
D26*
%TO.N,/5v*%
X175000000Y-91500000D03*
X178000000Y-92500000D03*
%TO.N,/3.3v*%
X175000000Y-97500000D03*
%TD*%
D29*
%TO.N,/BAT*%
X169000000Y-92500000D02*
X169000000Y-89000000D01*
X152380000Y-107000000D02*
X152380000Y-104120000D01*
X160500000Y-96000000D02*
X160500000Y-101000000D01*
X135500000Y-102500000D02*
X147880000Y-102500000D01*
X144000000Y-91000000D02*
X140500000Y-91000000D01*
X166485000Y-92800000D02*
X163700000Y-92800000D01*
D30*
X165700000Y-100800000D02*
X166485000Y-100800000D01*
D29*
X181500000Y-102500000D02*
X180000000Y-104000000D01*
X180000000Y-90200000D02*
X176925000Y-87125000D01*
X160500000Y-101000000D02*
X164500000Y-101000000D01*
X180000000Y-104000000D02*
X176875000Y-104000000D01*
X165000000Y-101500000D02*
X165700000Y-100800000D01*
X163017319Y-93482682D02*
X160500000Y-96000000D01*
X163700000Y-92800000D02*
X163017319Y-93482682D01*
X183800000Y-90200000D02*
X184000000Y-90000000D01*
X170000000Y-84500000D02*
X176000000Y-84500000D01*
X164500000Y-101000000D02*
X165000000Y-101500000D01*
X176925000Y-87125000D02*
X176000000Y-87125000D01*
X140500000Y-91000000D02*
X135500000Y-96000000D01*
X166485000Y-92800000D02*
X168700000Y-92800000D01*
X176000000Y-84500000D02*
X176000000Y-87125000D01*
X152380000Y-104120000D02*
X153500000Y-103000000D01*
X180000000Y-90200000D02*
X183800000Y-90200000D01*
X144500000Y-88000000D02*
X144500000Y-90500000D01*
X147880000Y-102500000D02*
X152380000Y-107000000D01*
X182500000Y-102500000D02*
X181500000Y-102500000D01*
X153500000Y-103000000D02*
X161500000Y-103000000D01*
X166500000Y-103000000D02*
X166500000Y-100815000D01*
D30*
X144480000Y-88000000D02*
X144500000Y-88000000D01*
D29*
X168700000Y-92800000D02*
X169000000Y-92500000D01*
X176875000Y-104000000D02*
X176625000Y-103750000D01*
D30*
X166500000Y-100815000D02*
X166485000Y-100800000D01*
D29*
X135500000Y-96000000D02*
X135500000Y-102500000D01*
X184000000Y-90000000D02*
X184000000Y-101000000D01*
X184000000Y-101000000D02*
X182500000Y-102500000D01*
X144500000Y-90500000D02*
X144000000Y-91000000D01*
%TO.N,GND*%
X166500000Y-95000000D02*
X166500000Y-96185000D01*
X148450000Y-85950000D02*
X150000000Y-87500000D01*
X174500000Y-95000000D02*
X166500000Y-95000000D01*
X176625000Y-102000000D02*
X176812500Y-101812500D01*
X163000000Y-88625000D02*
X166060000Y-88625000D01*
X174764000Y-88206000D02*
X175331000Y-88206000D01*
X180000000Y-98625000D02*
X176625000Y-102000000D01*
X180000000Y-97820000D02*
X180000000Y-98625000D01*
X176000000Y-93820000D02*
X180000000Y-97820000D01*
X161875000Y-87500000D02*
X163000000Y-88625000D01*
X176812500Y-97312500D02*
X174500000Y-95000000D01*
X174000000Y-86000000D02*
X174000000Y-86500000D01*
X175331000Y-88206000D02*
X176000000Y-88875000D01*
X164685000Y-98000000D02*
X162500000Y-98000000D01*
X166485000Y-87515000D02*
X168000000Y-86000000D01*
X166485000Y-96200000D02*
X164685000Y-98000000D01*
X166485000Y-88200000D02*
X166485000Y-87515000D01*
X166500000Y-96185000D02*
X166485000Y-96200000D01*
X174764000Y-87264000D02*
X174764000Y-88206000D01*
X147000000Y-87400000D02*
X148450000Y-85950000D01*
X176812500Y-101812500D02*
X176812500Y-97312500D01*
X166060000Y-88625000D02*
X166485000Y-88200000D01*
X148450000Y-85950000D02*
X149900000Y-84500000D01*
X176000000Y-88875000D02*
X176000000Y-93820000D01*
X147000000Y-98000000D02*
X147000000Y-87400000D01*
X143550000Y-98000000D02*
X147000000Y-98000000D01*
X168000000Y-86000000D02*
X174000000Y-86000000D01*
X174000000Y-86500000D02*
X174764000Y-87264000D01*
X150000000Y-87500000D02*
X161875000Y-87500000D01*
%TO.N,/5v*%
X173500000Y-90500000D02*
X172515000Y-90500000D01*
X178240000Y-92740000D02*
X178000000Y-92500000D01*
X166485000Y-90500000D02*
X163125000Y-90500000D01*
X166485000Y-90382215D02*
X166485000Y-90500000D01*
X175000000Y-91500000D02*
X174500000Y-91500000D01*
X172515000Y-90500000D02*
X172515000Y-88015000D01*
X174500000Y-91500000D02*
X173500000Y-90500000D01*
X163125000Y-90500000D02*
X163000000Y-90375000D01*
X169000000Y-87500000D02*
X168500000Y-88000000D01*
X172515000Y-88015000D02*
X172000000Y-87500000D01*
X168500000Y-88000000D02*
X168500000Y-88367215D01*
X172000000Y-87500000D02*
X169000000Y-87500000D01*
X180000000Y-92740000D02*
X178240000Y-92740000D01*
X168500000Y-88367215D02*
X166485000Y-90382215D01*
%TO.N,/3.3v*%
X166485000Y-98500000D02*
X172515000Y-98500000D01*
X165235000Y-99750000D02*
X166485000Y-98500000D01*
X172515000Y-98500000D02*
X174000000Y-98500000D01*
X174000000Y-98500000D02*
X175000000Y-97500000D01*
X162500000Y-99750000D02*
X165235000Y-99750000D01*
%TO.N,Net-(D1-A)*%
X159500000Y-102000000D02*
X162620000Y-102000000D01*
X154000000Y-96500000D02*
X159500000Y-102000000D01*
D30*
X154081800Y-96418200D02*
X154000000Y-96500000D01*
D29*
X154081800Y-90199400D02*
X154081800Y-96418200D01*
X162620000Y-102000000D02*
X167620000Y-107000000D01*
D30*
%TO.N,Net-(D2-Pad+)*%
X145500000Y-81500000D02*
X152000000Y-81500000D01*
X152000000Y-81500000D02*
X152000000Y-84500000D01*
X141520000Y-88000000D02*
X141520000Y-85480000D01*
X141520000Y-85480000D02*
X145500000Y-81500000D01*
D29*
%TO.N,Net-(J1-Pad1)*%
X150119400Y-94161800D02*
X150119400Y-95730542D01*
X147500000Y-101000000D02*
X138000000Y-101000000D01*
X138000000Y-101000000D02*
X138000000Y-96000000D01*
X149000000Y-99000000D02*
X147500000Y-100500000D01*
X149000000Y-96849942D02*
X149000000Y-99000000D01*
X147500000Y-100500000D02*
X147500000Y-101000000D01*
X138000000Y-96000000D02*
X143550000Y-96000000D01*
X150119400Y-95730542D02*
X149000000Y-96849942D01*
%TD*%
M02*
